<?xml version="1.0" encoding="UTF-8" standalone="no"?>
<!-- Created with Inkscape (http://www.inkscape.org/) -->

<svg
   width="48"
   height="48"
   viewBox="0 0 12.7 12.7"
   version="1.1"
   id="svg1"
   inkscape:version="1.3.2 (1:1.3.2+202311252150+091e20ef0f)"
   sodipodi:docname="close.svg"
   inkscape:export-filename="close.png"
   inkscape:export-xdpi="96"
   inkscape:export-ydpi="96"
   xmlns:inkscape="http://www.inkscape.org/namespaces/inkscape"
   xmlns:sodipodi="http://sodipodi.sourceforge.net/DTD/sodipodi-0.dtd"
   xmlns="http://www.w3.org/2000/svg"
   xmlns:svg="http://www.w3.org/2000/svg">
  <sodipodi:namedview
     id="namedview1"
     pagecolor="#ffffff"
     bordercolor="#000000"
     borderopacity="0.25"
     inkscape:showpageshadow="2"
     inkscape:pageopacity="0.0"
     inkscape:pagecheckerboard="true"
     inkscape:deskcolor="#d1d1d1"
     inkscape:document-units="mm"
     inkscape:zoom="19.029842"
     inkscape:cx="25.617659"
     inkscape:cy="24.067462"
     inkscape:window-width="1916"
     inkscape:window-height="1168"
     inkscape:window-x="0"
     inkscape:window-y="0"
     inkscape:window-maximized="1"
     inkscape:current-layer="layer1" />
  <defs
     id="defs1" />
  <g
     inkscape:label="Слой 1"
     inkscape:groupmode="layer"
     id="layer1">
    <path
       id="rect13"
       style="font-variation-settings:normal;opacity:1;vector-effect:none;fill:#ffffff;fill-opacity:1;stroke:none;stroke-width:0.637858;stroke-linecap:butt;stroke-linejoin:miter;stroke-miterlimit:4;stroke-dasharray:none;stroke-dashoffset:0;stroke-opacity:0.56;-inkscape-stroke:none;stop-color:#000000;stop-opacity:1"
       d="m 3.9226792,2.7386886 c -0.144594,1.6e-5 -0.288585,0.05818 -0.3995804,0.17252 l -0.5102142,0.524686 c -0.2218718,0.22878 -0.2218718,0.596768 0,0.825542 l 2.0270312,2.090258 -2.0270312,2.090254 c -0.2218718,0.22878 -0.2218718,0.596752 0,0.825544 l 0.5102142,0.524694 c 0.2218716,0.2287784 0.5786774,0.2287784 0.8005492,-4e-6 L 6.3506788,7.7019306 8.37771,9.7921946 c 0.2218718,0.2287484 0.5787074,0.2287804 0.800549,-2e-6 l 0.5088556,-0.524704 c 0.2218718,-0.22878 0.2218718,-0.596774 0,-0.825544 L 7.6600838,6.3516866 9.6871146,4.2614346 c 0.2218718,-0.228778 0.2218718,-0.596752 0,-0.825544 L 9.178259,2.9111866 c -0.2218716,-0.228748 -0.5787076,-0.22878 -0.800549,2e-6 L 6.3506788,5.0014406 4.3236782,2.9111986 c -0.111088,-0.1144 -0.2562852,-0.17252 -0.400999,-0.17248 z" />
  </g>
</svg>
