<?xml version="1.0" encoding="UTF-8" standalone="no"?>
<!-- Created with Inkscape (http://www.inkscape.org/) -->

<svg
   width="48"
   height="48"
   viewBox="0 0 12.7 12.7"
   version="1.1"
   id="svg1"
   inkscape:version="1.3.2 (1:1.3.2+202311252150+091e20ef0f)"
   sodipodi:docname="maximize.svg"
   inkscape:export-filename="maximize.png"
   inkscape:export-xdpi="96"
   inkscape:export-ydpi="96"
   xmlns:inkscape="http://www.inkscape.org/namespaces/inkscape"
   xmlns:sodipodi="http://sodipodi.sourceforge.net/DTD/sodipodi-0.dtd"
   xmlns="http://www.w3.org/2000/svg"
   xmlns:svg="http://www.w3.org/2000/svg">
  <sodipodi:namedview
     id="namedview1"
     pagecolor="#ffffff"
     bordercolor="#000000"
     borderopacity="0.25"
     inkscape:showpageshadow="2"
     inkscape:pageopacity="0.0"
     inkscape:pagecheckerboard="true"
     inkscape:deskcolor="#d1d1d1"
     inkscape:document-units="mm"
     inkscape:zoom="13.45613"
     inkscape:cx="19.730784"
     inkscape:cy="21.700147"
     inkscape:window-width="1916"
     inkscape:window-height="1168"
     inkscape:window-x="0"
     inkscape:window-y="0"
     inkscape:window-maximized="1"
     inkscape:current-layer="layer1" />
  <defs
     id="defs1" />
  <g
     inkscape:label="Слой 1"
     inkscape:groupmode="layer"
     id="layer1">
    <path
       id="rect5"
       style="fill:#ffffff;fill-opacity:1;stroke:none;stroke-width:0.637858;stroke-dasharray:none;stroke-opacity:0.56"
       d="m 2.8497303,2.8616394 c -0.3538658,0 -0.6393784,0.2919562 -0.6393784,0.6538205 V 9.184543 c 0,0.3618609 0.2854823,0.6538175 0.6393784,0.6538175 h 7.0021091 c 0.3538656,0 0.6378086,-0.2919566 0.6378086,-0.6538174 V 3.5154599 c 0,-0.361861 -0.283974,-0.6538205 -0.6378086,-0.6538205 z m 1.9041323,2.1288984 h 3.1938441 c 0.16145,0 0.2900092,0.114056 0.2900092,0.2551416 v 2.210224 c 0,0.141086 -0.128558,0.2551416 -0.2900092,0.2551416 H 4.7538626 c -0.16145,0 -0.2915182,-0.1140559 -0.2915182,-0.2551416 v -2.210224 c 0,-0.1410859 0.130066,-0.2551416 0.2915182,-0.2551416 z" />
  </g>
</svg>
