<?xml version="1.0" encoding="UTF-8" standalone="no"?>
<!-- Created with Inkscape (http://www.inkscape.org/) -->

<svg
   width="32"
   height="32"
   viewBox="0 0 8.4666667 8.4666667"
   version="1.1"
   id="svg1"
   inkscape:version="1.3.2 (1:1.3.2+202311252150+091e20ef0f)"
   sodipodi:docname="close.svg"
   inkscape:export-filename="close.png"
   inkscape:export-xdpi="96"
   inkscape:export-ydpi="96"
   xml:space="preserve"
   xmlns:inkscape="http://www.inkscape.org/namespaces/inkscape"
   xmlns:sodipodi="http://sodipodi.sourceforge.net/DTD/sodipodi-0.dtd"
   xmlns:xlink="http://www.w3.org/1999/xlink"
   xmlns="http://www.w3.org/2000/svg"
   xmlns:svg="http://www.w3.org/2000/svg"><sodipodi:namedview
     id="namedview1"
     pagecolor="#ffffff"
     bordercolor="#000000"
     borderopacity="0.25"
     inkscape:showpageshadow="2"
     inkscape:pageopacity="0.0"
     inkscape:pagecheckerboard="true"
     inkscape:deskcolor="#d1d1d1"
     inkscape:document-units="mm"
     inkscape:zoom="26.912261"
     inkscape:cx="15.401902"
     inkscape:cy="11.481756"
     inkscape:window-width="1916"
     inkscape:window-height="1140"
     inkscape:window-x="0"
     inkscape:window-y="28"
     inkscape:window-maximized="1"
     inkscape:current-layer="layer1" /><defs
     id="defs1"><linearGradient
       id="linearGradient5"
       inkscape:collect="always"><stop
         style="stop-color:#ffffff;stop-opacity:1;"
         offset="0"
         id="stop6" /><stop
         style="stop-color:#ededed;stop-opacity:0.68558455;"
         offset="1"
         id="stop7" /></linearGradient><linearGradient
       inkscape:collect="always"
       xlink:href="#linearGradient5"
       id="linearGradient9"
       gradientUnits="userSpaceOnUse"
       gradientTransform="matrix(1.5088931,0,0,1.5429461,-173.24781,-129.80037)"
       x1="117.66666"
       y1="85.645088"
       x2="117.59615"
       y2="88.178139" /></defs><g
     inkscape:label="Слой 1"
     inkscape:groupmode="layer"
     id="layer1"><rect
       style="fill:none;fill-opacity:1;stroke:#070707;stroke-width:0.251426;stroke-dasharray:none;stroke-opacity:0.556257"
       id="rect1"
       width="8.0182142"
       height="6.0295253"
       x="0.22422622"
       y="1.2185707"
       rx="0.40513933"
       ry="0.56252837" /><rect
       style="font-variation-settings:normal;opacity:1;vector-effect:none;fill:#e2783e;fill-opacity:0.59815532;stroke:#ffffff;stroke-width:0.273112;stroke-linecap:butt;stroke-linejoin:miter;stroke-miterlimit:4;stroke-dasharray:none;stroke-dashoffset:0;stroke-opacity:1;-inkscape-stroke:none;stop-color:#000000;stop-opacity:1"
       id="rect2"
       width="7.5280213"
       height="5.5129118"
       x="0.4976103"
       y="1.477272"
       rx="0.21278264"
       ry="0.3048678" /><path
       id="rect13"
       style="font-variation-settings:normal;opacity:1;vector-effect:none;fill:url(#linearGradient9);fill-opacity:1;stroke:#070707;stroke-width:0.318929;stroke-linecap:butt;stroke-linejoin:miter;stroke-miterlimit:4;stroke-dasharray:none;stroke-dashoffset:0;stroke-opacity:0.56;-inkscape-stroke:none;stop-color:#000000;stop-opacity:1"
       d="m 3.0346724,2.4985326 c -0.0723,8e-6 -0.144292,0.02909 -0.19979,0.08626 l -0.255107,0.262343 c -0.110936,0.11439 -0.110936,0.298384 0,0.412771 l 1.013515,1.045129 -1.013515,1.045127 c -0.110936,0.11439 -0.110936,0.2983756 0,0.4127716 l 0.255107,0.262347 c 0.110936,0.114389 0.289339,0.114389 0.400274,-2e-6 l 1.013516,-1.0451256 1.013515,1.0451316 c 0.110936,0.114374 0.289354,0.11439 0.400275,-1e-6 l 0.254428,-0.262352 c 0.110936,-0.11439 0.110936,-0.2983866 0,-0.4127716 l -1.013516,-1.045129 1.013516,-1.045126 c 0.110936,-0.114389 0.110936,-0.298376 0,-0.412772 l -0.254428,-0.262352 c -0.110936,-0.114374 -0.289354,-0.11439 -0.400275,1e-6 l -1.013515,1.045126 -1.0135,-1.045121 c -0.05554,-0.0572 -0.128143,-0.08626 -0.2005,-0.08624 z" /></g></svg>
